<?xml version="1.0" encoding="utf-8"?>
<!-- Generator: Adobe Illustrator 22.1.0, SVG Export Plug-In . SVG Version: 6.00 Build 0)  -->
<svg version="1.1" id="レイヤー_1" xmlns="http://www.w3.org/2000/svg" xmlns:xlink="http://www.w3.org/1999/xlink" x="0px"
	 y="0px" viewBox="0 0 700 147" style="enable-background:new 0 0 700 147;" xml:space="preserve">
<style type="text/css">
	.st0{fill:#FFFFFF;}
</style>
<g>
	<path class="st0" d="M51,21H36.1v21.7H6v14.7h29.8c-1.1,25.6-4.9,48.3-11.3,67.4l-0.5,1.6l14.2,4.2l0.5-1.5
		c7.1-21.1,10.9-43.9,12-71.7H101v26.9c0,18.9-9.2,24.2-18.2,26.9l-1.8,0.5l6.1,12.8l1.3-0.3c18.2-4.8,27.4-18.1,27.4-39.4V42.7H51
		V21z"/>
	<path class="st0" d="M217.5,21.2h-14.9v17.2h-70v14.7h70v10.8c0,17.7-3.8,30.6-11.7,39.5c-8.1,9.1-20.4,13.9-37.8,14.8l-1.9,0.1
		l2.9,14.5l1.4-0.1c41.1-2.7,61.9-25.8,61.9-68.5v-11H246V38.4h-28.6V21.2H217.5z"/>
	<path class="st0" d="M308.2,30.9h-9.9c-14.1,0-22.7,7.4-26.2,22.6l-9.9,42.7l14.2,2.8l9.2-39.7c2.3-10.2,6-13.8,14.1-13.8h8.6
		c8.9,0,14.7,4.6,18.8,14.8l26,64.6l13.2-5.6l-26.4-65.6C333.9,38.4,323.5,30.9,308.2,30.9z"/>
	<path class="st0" d="M451.5,23c-4.7,16.2-15,24.4-36.7,29.2l-34.5,7.7l2.3,14.6l35.8-8.2c0.7-0.2,1.4-0.3,2.1-0.5V127h14.7V61.3
		c16.1-6.4,25.5-16.8,30.4-33.5l0.4-1.5l-14.1-5L451.5,23z"/>
	<path class="st0" d="M524.4,37.1c-31.4,0-45.8,23.6-45.8,45.6c0,19.3,10.4,33.9,24.2,33.9c17.1,0,27-21.8,27.3-59.8v-2.5h-12.9v2.4
		c-0.3,34.1-7.6,46.3-14.3,46.3c-6.4,0-11.2-8.8-11.2-20.4c0-15,8.5-32.6,32.3-32.6c17.9,0,27.8,9.5,27.8,26.7
		c0,4.5-1.9,10.1-4.6,13.3l-1.7,2l10.8,7.6l1.4-1.9c4.4-5.7,7.1-13.7,7.1-20.9C565.1,52.4,549.5,37.1,524.4,37.1z"/>
	<polygon class="st0" points="641.1,22.7 641.1,17.2 626.9,17.2 626.9,22.7 576.4,22.7 576.4,52.4 590.7,52.4 590.7,35.8 
		677.3,35.8 677.3,52.4 691.4,52.4 691.4,22.7 	"/>
	<path class="st0" d="M666.9,89l21.9-13.4l-6.3-11l-19.3,11.8c-0.8-4-1.3-8-1.6-11.2l-0.2-1.4h-13.2l0.2,1.8
		c2.9,28.9,14.7,51.3,33.2,63l1.4,0.9l7.6-12.1l-1.5-0.8C679.3,111,671.6,101.5,666.9,89z"/>
	<path class="st0" d="M629.6,62.3l11.3-6.2H675V43.3h-82V56h24.6l-27.3,14.6l5.5,10.1l23-12.5c2.3,1.8,4.4,3.7,6.3,5.7l-25.8,13.8
		l5.6,10l27.2-14.6c1.4,2.4,2.5,4.8,3.5,7.3l-57.5,31.2l5.6,10l54.8-29.5c0.1,1.5,0.2,3.1,0.2,4.8c0,9.3-4.4,15.1-11.4,15.1h-5.9
		v12.1h7.6c15.3,0,24.1-9.5,24.1-26.1C653.1,90.2,644,72.5,629.6,62.3z"/>
</g>
</svg>
